<svg width="0" height="0" class="hidden">
  <symbol fill="none" xmlns="http://www.w3.org/2000/svg" viewBox="0 0 18 22" id="Location">
    <path d="M9 11.9167C10.5188 11.9167 11.75 10.6855 11.75 9.16667C11.75 7.64788 10.5188 6.41667 9 6.41667C7.48122 6.41667 6.25 7.64788 6.25 9.16667C6.25 10.6855 7.48122 11.9167 9 11.9167Z" stroke="#FF5722" stroke-width="1.83333" stroke-linecap="round" stroke-linejoin="round"></path>
    <path d="M9.00001 1.83333C7.05508 1.83333 5.18982 2.60595 3.81456 3.98122C2.43929 5.35648 1.66667 7.22175 1.66667 9.16667C1.66667 10.901 2.03517 12.0358 3.04167 13.2917L9.00001 20.1667L14.9583 13.2917C15.9648 12.0358 16.3333 10.901 16.3333 9.16667C16.3333 7.22175 15.5607 5.35648 14.1855 3.98122C12.8102 2.60595 10.9449 1.83333 9.00001 1.83333V1.83333Z" stroke="#FF5722" stroke-width="1.83333" stroke-linecap="round" stroke-linejoin="round"></path>
  </symbol>
  <symbol fill="none" xmlns="http://www.w3.org/2000/svg" viewBox="0 0 22 18" id="Message">
    <path d="M2.75 2.8125C2.37187 2.8125 2.0625 3.12187 2.0625 3.5V4.44961L9.47461 10.534C10.3641 11.2645 11.6402 11.2645 12.5297 10.534L19.9375 4.44961V3.5C19.9375 3.12187 19.6281 2.8125 19.25 2.8125H2.75ZM2.0625 7.11797V14.5C2.0625 14.8781 2.37187 15.1875 2.75 15.1875H19.25C19.6281 15.1875 19.9375 14.8781 19.9375 14.5V7.11797L13.8359 12.1281C12.1859 13.4816 9.80977 13.4816 8.16406 12.1281L2.0625 7.11797ZM0 3.5C0 1.9832 1.2332 0.75 2.75 0.75H19.25C20.7668 0.75 22 1.9832 22 3.5V14.5C22 16.0168 20.7668 17.25 19.25 17.25H2.75C1.2332 17.25 0 16.0168 0 14.5V3.5Z" fill="#FF5722"></path>
  </symbol>
  <symbol fill="none" xmlns="http://www.w3.org/2000/svg" viewBox="0 0 24 24" id="Calling">
    <path opacity="0.4" d="M15.0136 1C19.2121 1.47589 22.5292 4.85695 23 9.14232" stroke="#FF5722" stroke-width="1.5" stroke-linecap="round" stroke-linejoin="round"></path>
    <path opacity="0.4" d="M15.0136 5.10242C17.0227 5.50074 18.5927 7.10442 18.9841 9.15505" stroke="#FF5722" stroke-width="1.5" stroke-linecap="round" stroke-linejoin="round"></path>
    <path fill-rule="evenodd" clip-rule="evenodd" d="M11.2456 12.547C15.7709 17.1646 16.7974 11.8225 19.6787 14.7614C22.4564 17.5958 24.0541 18.1637 20.5335 21.7549C20.0927 22.1166 17.2918 26.467 7.44863 16.4228C-2.39581 6.37726 1.86394 3.51546 2.21831 3.06563C5.74619 -0.535547 6.29418 1.1035 9.07191 3.93796C11.9519 6.87805 6.7204 7.92932 11.2456 12.547Z" stroke="#FF5722" stroke-width="1.5" stroke-linecap="round" stroke-linejoin="round"></path>
  </symbol>
  <symbol fill="none" xmlns="http://www.w3.org/2000/svg" viewBox="0 0 24 24" id="linkedin">
    <g clip-path="url(#clip0_1_2)">
      <path d="M20.447 20.452H16.893V14.883C16.893 13.555 16.866 11.846 15.041 11.846C13.188 11.846 12.905 13.291 12.905 14.785V20.452H9.351V9H12.765V10.561H12.811C13.288 9.661 14.448 8.711 16.181 8.711C19.782 8.711 20.448 11.081 20.448 14.166L20.447 20.452ZM5.337 7.433C4.193 7.433 3.274 6.507 3.274 5.368C3.274 4.23 4.194 3.305 5.337 3.305C6.477 3.305 7.401 4.23 7.401 5.368C7.401 6.507 6.476 7.433 5.337 7.433ZM7.119 20.452H3.555V9H7.119V20.452ZM22.225 0H1.771C0.792 0 0 0.774 0 1.729V22.271C0 23.227 0.792 24 1.771 24H22.222C23.2 24 24 23.227 24 22.271V1.729C24 0.774 23.2 0 22.222 0H22.225Z" fill="#FF5722"></path>
    </g>
    <defs>
      <clipPath id="clip0_1_2">
        <rect width="24" height="24" fill="white"></rect>
      </clipPath>
    </defs>
  </symbol>
  <symbol fill="none" xmlns="http://www.w3.org/2000/svg" viewBox="0 0 24 24" id="telegram">
    <g clip-path="url(#clip0_1_4)">
      <path d="M11.944 3.26667e-05C8.77112 0.0148396 5.73324 1.28566 3.4949 3.53449C1.25656 5.78332 -3.4549e-05 8.82711 7.12435e-10 12C7.12441e-10 15.1826 1.26428 18.2349 3.51472 20.4853C5.76516 22.7357 8.8174 24 12 24C15.1826 24 18.2348 22.7357 20.4853 20.4853C22.7357 18.2349 24 15.1826 24 12C24 8.81743 22.7357 5.76519 20.4853 3.51475C18.2348 1.26431 15.1826 3.26667e-05 12 3.26667e-05C11.9813 -1.08889e-05 11.9627 -1.08889e-05 11.944 3.26667e-05ZM16.906 7.22403C17.006 7.22203 17.227 7.24703 17.371 7.36403C17.4667 7.44713 17.5277 7.56311 17.542 7.68903C17.558 7.78203 17.578 7.99503 17.562 8.16103C17.382 10.059 16.6 14.663 16.202 16.788C16.034 17.688 15.703 17.989 15.382 18.018C14.686 18.083 14.157 17.558 13.482 17.116C12.426 16.423 11.829 15.992 10.804 15.316C9.619 14.536 10.387 14.106 11.062 13.406C11.239 13.222 14.309 10.429 14.369 10.176C14.376 10.144 14.383 10.026 14.313 9.96403C14.243 9.90203 14.139 9.92303 14.064 9.94003C13.958 9.96403 12.271 11.08 9.003 13.285C8.523 13.615 8.09 13.775 7.701 13.765C7.273 13.757 6.449 13.524 5.836 13.325C5.084 13.08 4.487 12.951 4.539 12.536C4.566 12.32 4.864 12.099 5.432 11.873C8.93 10.349 11.262 9.34403 12.43 8.85903C15.762 7.47303 16.455 7.23203 16.906 7.22403Z" fill="#FF5722"></path>
    </g>
    <defs>
      <clipPath id="clip0_1_4">
        <rect width="24" height="24" fill="white"></rect>
      </clipPath>
    </defs>
  </symbol>
  <symbol fill="none" xmlns="http://www.w3.org/2000/svg" viewBox="0 0 24 24" id="twitter">
    <path d="M23.953 4.57C23.0545 4.96561 22.1026 5.22674 21.128 5.345C22.1541 4.72825 22.9224 3.76104 23.291 2.622C22.34 3.177 21.286 3.581 20.164 3.806C19.4238 3.01443 18.4429 2.48942 17.3736 2.3125C16.3044 2.13558 15.2067 2.31665 14.2509 2.82759C13.2952 3.33853 12.5349 4.15075 12.0881 5.13812C11.6412 6.1255 11.533 7.23277 11.78 8.288C7.69 8.095 4.067 6.13 1.64 3.162C1.19879 3.91181 0.968664 4.76703 0.974 5.637C0.974 7.347 1.844 8.85 3.162 9.733C2.38086 9.70813 1.61697 9.49693 0.934 9.117V9.177C0.933557 10.3134 1.32627 11.4149 2.04551 12.2948C2.76474 13.1746 3.76621 13.7785 4.88 14.004C4.1583 14.1974 3.40241 14.2264 2.668 14.089C2.98412 15.067 3.59766 15.9219 4.42301 16.5345C5.24837 17.1471 6.24435 17.4867 7.272 17.506C5.53153 18.8719 3.38248 19.6133 1.17 19.611C0.78 19.611 0.391 19.588 0 19.544C2.25571 20.9883 4.87851 21.755 7.557 21.753C16.61 21.753 21.555 14.257 21.555 7.768C21.555 7.558 21.555 7.348 21.54 7.138C22.506 6.44286 23.3392 5.57982 24 4.59L23.953 4.57Z" fill="#FF5722"></path>
  </symbol>
</svg>