<svg width="0" height="0" class="hidden">
  <symbol fill="none" xmlns="http://www.w3.org/2000/svg" viewBox="0 0 18 22" id="Location">
    <path d="M9 11.9167C10.5188 11.9167 11.75 10.6855 11.75 9.16667C11.75 7.64788 10.5188 6.41667 9 6.41667C7.48122 6.41667 6.25 7.64788 6.25 9.16667C6.25 10.6855 7.48122 11.9167 9 11.9167Z" stroke="#FF5722" stroke-width="1.83333" stroke-linecap="round" stroke-linejoin="round"></path>
    <path d="M9.00001 1.83333C7.05508 1.83333 5.18982 2.60595 3.81456 3.98122C2.43929 5.35648 1.66667 7.22175 1.66667 9.16667C1.66667 10.901 2.03517 12.0358 3.04167 13.2917L9.00001 20.1667L14.9583 13.2917C15.9648 12.0358 16.3333 10.901 16.3333 9.16667C16.3333 7.22175 15.5607 5.35648 14.1855 3.98122C12.8102 2.60595 10.9449 1.83333 9.00001 1.83333V1.83333Z" stroke="#FF5722" stroke-width="1.83333" stroke-linecap="round" stroke-linejoin="round"></path>
  </symbol>
  <symbol fill="none" xmlns="http://www.w3.org/2000/svg" viewBox="0 0 22 18" id="Message">
    <path d="M2.75 2.8125C2.37187 2.8125 2.0625 3.12187 2.0625 3.5V4.44961L9.47461 10.534C10.3641 11.2645 11.6402 11.2645 12.5297 10.534L19.9375 4.44961V3.5C19.9375 3.12187 19.6281 2.8125 19.25 2.8125H2.75ZM2.0625 7.11797V14.5C2.0625 14.8781 2.37187 15.1875 2.75 15.1875H19.25C19.6281 15.1875 19.9375 14.8781 19.9375 14.5V7.11797L13.8359 12.1281C12.1859 13.4816 9.80977 13.4816 8.16406 12.1281L2.0625 7.11797ZM0 3.5C0 1.9832 1.2332 0.75 2.75 0.75H19.25C20.7668 0.75 22 1.9832 22 3.5V14.5C22 16.0168 20.7668 17.25 19.25 17.25H2.75C1.2332 17.25 0 16.0168 0 14.5V3.5Z" fill="#FF5722"></path>
  </symbol>
  <symbol fill="none" xmlns="http://www.w3.org/2000/svg" viewBox="0 0 24 24" id="Calling">
    <path opacity="0.4" d="M15.0136 1C19.2121 1.47589 22.5292 4.85695 23 9.14232" stroke="#FF5722" stroke-width="1.5" stroke-linecap="round" stroke-linejoin="round"></path>
    <path opacity="0.4" d="M15.0136 5.10242C17.0227 5.50074 18.5927 7.10442 18.9841 9.15505" stroke="#FF5722" stroke-width="1.5" stroke-linecap="round" stroke-linejoin="round"></path>
    <path fill-rule="evenodd" clip-rule="evenodd" d="M11.2456 12.547C15.7709 17.1646 16.7974 11.8225 19.6787 14.7614C22.4564 17.5958 24.0541 18.1637 20.5335 21.7549C20.0927 22.1166 17.2918 26.467 7.44863 16.4228C-2.39581 6.37726 1.86394 3.51546 2.21831 3.06563C5.74619 -0.535547 6.29418 1.1035 9.07191 3.93796C11.9519 6.87805 6.7204 7.92932 11.2456 12.547Z" stroke="#FF5722" stroke-width="1.5" stroke-linecap="round" stroke-linejoin="round"></path>
  </symbol>
</svg>